<svg xmlns="http://www.w3.org/2000/svg" xmlns:xlink="http://www.w3.org/1999/xlink" width="40" zoomAndPan="magnify" viewBox="0 0 30 30.000001" height="40" preserveAspectRatio="xMidYMid meet" version="1.0"><defs><g/><clipPath id="f8b964744c"><path d="M 1.585938 1.101562 L 28.414062 1.101562 L 28.414062 27.929688 L 1.585938 27.929688 Z M 1.585938 1.101562 " clip-rule="nonzero"/></clipPath><clipPath id="71b036dc88"><path d="M 15 1.101562 C 7.589844 1.101562 1.585938 7.105469 1.585938 14.515625 C 1.585938 21.925781 7.589844 27.929688 15 27.929688 C 22.410156 27.929688 28.414062 21.925781 28.414062 14.515625 C 28.414062 7.105469 22.410156 1.101562 15 1.101562 Z M 15 1.101562 " clip-rule="nonzero"/></clipPath><clipPath id="7410c3e7f4"><path d="M 19.351562 9.242188 L 25.882812 9.242188 L 25.882812 12 L 19.351562 12 Z M 19.351562 9.242188 " clip-rule="nonzero"/></clipPath><clipPath id="80287334c0"><path d="M 21 10 L 25 10 L 25 12.144531 L 21 12.144531 Z M 21 10 " clip-rule="nonzero"/></clipPath><clipPath id="17dfcf19ce"><path d="M 19.351562 10 L 20 10 L 20 11 L 19.351562 11 Z M 19.351562 10 " clip-rule="nonzero"/></clipPath><clipPath id="aeeb3ac148"><path d="M 19.351562 10 L 20 10 L 20 12 L 19.351562 12 Z M 19.351562 10 " clip-rule="nonzero"/></clipPath></defs><g clip-path="url(#f8b964744c)"><g clip-path="url(#71b036dc88)"><path fill="#121212" d="M 1.585938 1.101562 L 28.414062 1.101562 L 28.414062 27.929688 L 1.585938 27.929688 Z M 1.585938 1.101562 " fill-opacity="1" fill-rule="nonzero"/></g></g><g fill="#ffffff" fill-opacity="1"><g transform="translate(3.870967, 21.908456)"><g><path d="M 7.828125 -15.390625 C 7.929688 -15.421875 8.203125 -15.421875 8.640625 -15.390625 C 8.835938 -15.378906 9.003906 -15.375 9.140625 -15.375 C 9.285156 -15.375 9.394531 -15.363281 9.46875 -15.34375 C 10.03125 -15.28125 10.519531 -15.179688 10.9375 -15.046875 C 11.351562 -14.910156 11.726562 -14.726562 12.0625 -14.5 C 12.394531 -14.28125 12.695312 -14 12.96875 -13.65625 C 13.25 -13.3125 13.523438 -12.898438 13.796875 -12.421875 C 13.929688 -12.128906 14.035156 -11.851562 14.109375 -11.59375 C 14.179688 -11.34375 14.25 -11.132812 14.3125 -10.96875 C 14.632812 -9.945312 14.796875 -8.921875 14.796875 -7.890625 C 14.796875 -7.285156 14.738281 -6.695312 14.625 -6.125 C 14.550781 -5.644531 14.46875 -5.175781 14.375 -4.71875 C 14.289062 -4.257812 14.128906 -3.8125 13.890625 -3.375 C 13.554688 -2.707031 13.160156 -2.148438 12.703125 -1.703125 C 12.242188 -1.253906 11.734375 -0.890625 11.171875 -0.609375 C 10.617188 -0.335938 10.015625 -0.144531 9.359375 -0.03125 C 8.710938 0.0703125 8.03125 0.125 7.3125 0.125 C 6.269531 0.125 5.414062 -0.0390625 4.75 -0.375 C 3.738281 -0.894531 2.960938 -1.585938 2.421875 -2.453125 C 1.878906 -3.316406 1.503906 -4.300781 1.296875 -5.40625 C 1.097656 -6.4375 1.007812 -7.421875 1.03125 -8.359375 C 1.0625 -9.304688 1.1875 -10.207031 1.40625 -11.0625 C 1.632812 -11.863281 1.929688 -12.53125 2.296875 -13.0625 C 2.671875 -13.601562 3.109375 -14.035156 3.609375 -14.359375 C 4.117188 -14.679688 4.695312 -14.921875 5.34375 -15.078125 C 5.988281 -15.234375 6.691406 -15.332031 7.453125 -15.375 C 7.503906 -15.375 7.578125 -15.375 7.671875 -15.375 C 7.765625 -15.382812 7.816406 -15.390625 7.828125 -15.390625 Z M 10.40625 -14.75 C 10.28125 -14.75 10.15625 -14.6875 10.03125 -14.5625 C 9.945312 -14.445312 9.9375 -14.296875 10 -14.109375 C 10.070312 -13.929688 10.234375 -13.789062 10.484375 -13.6875 C 11.148438 -13.40625 11.578125 -13.265625 11.765625 -13.265625 C 11.847656 -13.296875 11.898438 -13.347656 11.921875 -13.421875 C 11.960938 -13.503906 11.984375 -13.554688 11.984375 -13.578125 C 11.984375 -13.597656 11.867188 -13.726562 11.640625 -13.96875 C 11.585938 -14.019531 11.507812 -14.085938 11.40625 -14.171875 C 11.3125 -14.265625 11.203125 -14.351562 11.078125 -14.4375 C 10.960938 -14.519531 10.847656 -14.59375 10.734375 -14.65625 C 10.617188 -14.71875 10.507812 -14.75 10.40625 -14.75 Z M 8.5625 -12.359375 C 8.3125 -12.410156 8.128906 -12.410156 8.015625 -12.359375 C 7.359375 -12.273438 6.875 -12.0625 6.5625 -11.71875 C 6.363281 -11.519531 6.195312 -11.226562 6.0625 -10.84375 C 5.925781 -10.457031 5.820312 -10 5.75 -9.46875 C 5.738281 -9.34375 5.734375 -9.160156 5.734375 -8.921875 C 5.734375 -8.691406 5.734375 -8.390625 5.734375 -8.015625 C 5.734375 -7.273438 5.742188 -6.640625 5.765625 -6.109375 C 5.796875 -5.585938 5.859375 -5.160156 5.953125 -4.828125 C 6.140625 -4.242188 6.363281 -3.8125 6.625 -3.53125 C 6.882812 -3.25 7.238281 -3.082031 7.6875 -3.03125 C 8.15625 -3 8.582031 -3.070312 8.96875 -3.25 C 9.25 -3.382812 9.472656 -3.59375 9.640625 -3.875 C 9.816406 -4.164062 9.957031 -4.539062 10.0625 -5 C 10.363281 -6.300781 10.515625 -7.582031 10.515625 -8.84375 C 10.515625 -9.1875 10.492188 -9.550781 10.453125 -9.9375 C 10.410156 -10.332031 10.316406 -10.703125 10.171875 -11.046875 C 10.035156 -11.390625 9.84375 -11.679688 9.59375 -11.921875 C 9.34375 -12.171875 9 -12.316406 8.5625 -12.359375 Z M 8.5625 -12.359375 "/></g></g></g><g fill="#ffffff" fill-opacity="1"><g transform="translate(18.65989, 20.755368)"><g><path d="M 3.234375 -6.515625 C 3.710938 -6.515625 4.0625 -6.425781 4.28125 -6.25 C 4.507812 -6.070312 4.625 -5.828125 4.625 -5.515625 C 4.625 -5.328125 4.59375 -5.144531 4.53125 -4.96875 L 3.390625 -1.28125 C 3.367188 -1.1875 3.359375 -1.097656 3.359375 -1.015625 C 3.359375 -0.910156 3.378906 -0.828125 3.421875 -0.765625 C 3.460938 -0.703125 3.519531 -0.644531 3.59375 -0.59375 C 3.65625 -0.53125 3.695312 -0.476562 3.71875 -0.4375 C 3.738281 -0.40625 3.742188 -0.363281 3.734375 -0.3125 C 3.691406 -0.195312 3.609375 -0.113281 3.484375 -0.0625 C 3.359375 -0.0195312 3.171875 0 2.921875 0 L 0.109375 0 C -0.109375 0 -0.265625 -0.03125 -0.359375 -0.09375 C -0.460938 -0.164062 -0.5 -0.257812 -0.46875 -0.375 C -0.425781 -0.476562 -0.335938 -0.566406 -0.203125 -0.640625 C -0.078125 -0.703125 0.0234375 -0.78125 0.109375 -0.875 C 0.191406 -0.96875 0.257812 -1.113281 0.3125 -1.3125 L 1.390625 -4.875 C 1.410156 -4.945312 1.421875 -5.003906 1.421875 -5.046875 C 1.421875 -5.140625 1.398438 -5.210938 1.359375 -5.265625 C 1.316406 -5.316406 1.253906 -5.375 1.171875 -5.4375 C 1.085938 -5.5 1.03125 -5.554688 1 -5.609375 C 0.96875 -5.660156 0.96875 -5.726562 1 -5.8125 C 1.039062 -6 1.296875 -6.160156 1.765625 -6.296875 C 2.234375 -6.441406 2.722656 -6.515625 3.234375 -6.515625 Z M 4.0625 -9.25 C 4.375 -9.25 4.632812 -9.144531 4.84375 -8.9375 C 5.0625 -8.726562 5.171875 -8.46875 5.171875 -8.15625 C 5.171875 -7.945312 5.113281 -7.738281 5 -7.53125 C 4.894531 -7.320312 4.738281 -7.15625 4.53125 -7.03125 C 4.332031 -6.90625 4.113281 -6.84375 3.875 -6.84375 C 3.5625 -6.84375 3.296875 -6.945312 3.078125 -7.15625 C 2.867188 -7.363281 2.765625 -7.625 2.765625 -7.9375 C 2.765625 -8.144531 2.816406 -8.347656 2.921875 -8.546875 C 3.023438 -8.753906 3.175781 -8.921875 3.375 -9.046875 C 3.570312 -9.179688 3.800781 -9.25 4.0625 -9.25 Z M 4.0625 -9.25 "/></g></g></g><g clip-path="url(#7410c3e7f4)"><path fill="#ffffff" d="M 22.726562 11.050781 L 25.835938 10.089844 L 22.726562 9.242188 L 19.621094 10.492188 L 22.726562 11.050781 " fill-opacity="1" fill-rule="nonzero"/></g><g clip-path="url(#80287334c0)"><path fill="#ffffff" d="M 24.152344 10.144531 L 24.152344 12.007812 C 23.925781 11.445312 23.371094 11.191406 22.726562 11.191406 C 22.105469 11.191406 21.570312 11.421875 21.332031 11.957031 L 21.332031 10.144531 L 24.152344 10.144531 " fill-opacity="1" fill-rule="nonzero"/></g><g clip-path="url(#17dfcf19ce)"><path fill="#ffffff" d="M 19.542969 10.488281 C 19.542969 10.5625 19.601562 10.621094 19.675781 10.621094 C 19.75 10.621094 19.808594 10.5625 19.808594 10.488281 C 19.808594 10.414062 19.75 10.355469 19.675781 10.355469 C 19.601562 10.355469 19.542969 10.414062 19.542969 10.488281 " fill-opacity="1" fill-rule="nonzero"/></g><g clip-path="url(#aeeb3ac148)"><path fill="#ffffff" d="M 19.675781 10.621094 C 19.675781 10.621094 19.523438 10.738281 19.675781 11.050781 C 19.824219 11.367188 19.355469 11.871094 19.355469 11.871094 L 19.617188 11.71875 C 19.617188 11.71875 19.550781 11.878906 19.53125 11.957031 C 19.53125 11.957031 20.074219 11.554688 19.808594 11.019531 C 19.542969 10.484375 19.675781 10.621094 19.675781 10.621094 " fill-opacity="1" fill-rule="nonzero"/></g></svg>